<svg version="1.2" xmlns="http://www.w3.org/2000/svg" viewBox="0 0 1200 1500" width="1200" height="1500"><style>.a{fill:#fff}</style><path class="a" d="m521.3 17.4c-1 1.3-3 3.3-4.5 4.5-1.6 1.1-4.7 2.5-7 2.9-3.2 0.6-5.6 0.4-9.3-0.9-2.7-1-6.5-1.8-8.2-1.9-2.3 0-3.5 0.6-3.9 1.8-0.4 0.9-0.4 2.7 0 4 0.4 1.3 1.9 2.6 3.9 3.3 1.7 0.6 4.3 1.8 5.7 2.8 1.5 1.1 2.8 3.4 3.3 5.7 0.5 2.1 1.9 5.8 3.3 8.2 1.3 2.3 3.8 4.9 5.7 5.8 1.7 0.9 4.2 2.6 5.5 3.8 1.3 1.2 2.2 3.3 2.2 4.9 0 1.5-0.5 2.9-1 3.2-0.5 0.3-1 2.8-1 5.5 0 2.8 0.7 7.6 1.5 10.8 0.8 3.1 1.5 6.3 1.5 7 0 0.6-1.2 1.2-2.7 1.2-1.7 0-3.3-0.8-4-2-0.8-1.2-2.2-1.9-3.5-1.7-1.8 0.1-2.7 1.4-4.1 5.7-0.9 3-2.4 8.4-3.2 12-0.8 3.6-2.7 11.7-4.3 18-1.5 6.3-3.7 12.6-4.7 14-1.1 1.4-8.1 9.5-15.5 18-7.4 8.5-15.6 18-18.1 21-2.5 3-10.4 10-17.5 15.5-7.1 5.5-16.3 12.5-20.4 15.6-4.1 3-9.7 6.9-12.5 8.6-2.7 1.8-9.5 4.8-15 6.8-5.5 1.9-10.7 3.7-11.5 3.9-0.8 0.2-2.7 0.9-4.2 1.5l-2.8 1.1c2.9 6.6 22.5 51.5 45.5 104 22.9 52.5 45.1 103.4 49.2 113 4.1 9.6 8.6 20 9.9 23 1.3 3 2.4 6.1 2.4 6.8 0 0.6 1.1 3.5 2.5 6.2 1.4 2.8 3.2 8 4 11.8 0.9 3.7 2.2 8.5 3 10.7 0.7 2.2 3.2 9.9 5.4 17 2.2 7.1 13 42.7 23.9 79 11 36.3 33.1 109.9 49.2 163.5l29.4 97.5c110.8 151.9 151.7 208 162.5 222.7 10.8 14.7 22.6 31.2 26.2 36.5 3.7 5.4 27.8 47.4 53.7 93.3 25.8 45.9 64.8 115.2 86.7 154 21.9 38.8 41.4 72.4 43.4 74.8 2 2.4 4.1 4.3 4.6 4.3 0.5 0 2.1-0.9 3.5-2l2.5-2c-5-5.1-6.5-7.2-6.5-7.8 0-0.8 1.1-1.2 2.9-1l3 0.2c0.1-13.9-0.3-15.6-2.4-18.7-1.4-2.1-2.5-4.1-2.5-4.5 0-0.5 1.7-2.5 3.8-4.5 3.4-3.4 3.8-3.6 4.9-2 1.2 1.6 1.4 1.5 3.3-0.8 1.1-1.4 2-2.8 2-3.2 0-0.5-0.8-0.9-1.7-1-1.2-0.2-0.5-1.4 2.8-4.5 2.4-2.3 4.6-3.8 4.9-3.2 0.3 0.5 1.6-0.2 3-1.6 1.4-1.4 2.2-2.8 1.7-3.2-0.4-0.5 0.7-2.3 2.5-4l3.3-3.3-4.4-4.5c3.6-7.7 5.5-10.3 6.5-10.7 1.1-0.3 2.2-0.3 2.6 0 0.4 0.4 0.3 1.7-0.2 3-0.7 1.4-0.6 3.9 0 7 0.5 2.6 1.1 4.8 1.2 5 0.2 0.2 1.3 0.1 2.6-0.2 1.6-0.5 2.5-1.7 3.2-4.8 0.6-2.4 1.5-5.8 2-7.5 0.8-2.6 0.7-3.7-0.5-5.3-1.1-1.4-1.2-2.2-0.4-2.7 0.8-0.6 0.9-2.3 0.4-5.3-0.4-2.5-0.7-6.1-0.6-8 0.1-1.9 0.8-4.1 1.4-4.8 0.7-0.7 2.8-1.8 4.7-2.3 1.9-0.6 5-2.2 6.7-3.7 1.8-1.5 3.3-3.5 3.3-4.4 0-1-1.2-2.7-2.7-3.9-1.6-1.1-4.6-3.4-6.8-5-3.3-2.6-4.7-3-8-2.6-2.2 0.3-4.9 0.8-6 1.1-1.2 0.4-2.9-0.1-4.3-1.1-1.5-1.2-5.1-9.1-10.7-23-4.7-11.7-8.5-22.2-8.5-23.3 0-1.1 1.4-4 3-6.5 1.7-2.5 3-5.1 3-5.7 0-0.7 1.1-2.4 2.5-3.8 1.4-1.4 2.5-3.4 2.5-4.5 0-1.1 1.3-3.1 2.9-4.5 1.6-1.4 3.7-3 4.7-3.6 1.1-0.6 2-2.2 2.2-3.5 0.2-1.8-1.1-3.7-5.3-7.6-3-2.9-7-7.4-8.8-10-3.3-4.8-3.3-4.8-2.3-11.6 1-6.2 1.3-6.8 4.6-8.5 2-1 3.7-2.7 4.1-4.2 0.4-1.4 0.7-4.2 0.8-6.2 0.1-3.2 0.5-3.9 2.6-4.3 1.6-0.3 3-1.6 3.9-3.7 0.7-1.8 3-4.6 5-6.3 2-1.7 4.8-4 6.1-5.2 1.9-1.8 2.4-3 2-5-0.3-1.6-0.8-3.6-1-4.5-0.3-1 0.2-2.5 1.1-3.3 0.8-0.8 3.1-1.5 5-1.5 2.6 0 3.8-0.6 4.9-2.5 1.4-2.3 1.3-3.1-0.7-9.2-1.3-3.8-3.2-7.3-4.5-8.2-1.6-1.1-2.9-4-4.3-9.6-1.1-4.4-2-8.9-2-10 0-1.1-1.3-3.2-2.8-4.8-2.2-2.2-2.4-2.7-0.9-2.7 1.1 0 2.7-2 4.5-5.7 2.6-5.4 2.8-6.2 1.9-12.3-0.7-4.8-0.6-7.6 0.3-10.5 0.7-2.2 1.2-7.2 1.1-11-0.1-3.8-0.4-10.8-0.7-15.5l-0.6-8.5c7-7.9 10.3-10.4 12.2-11 1.8-0.5 4.2-2.2 5.4-3.7 1.9-2.5 2-2.9 0.5-5-1.5-2.2-1.4-2.5 2.3-6 2.1-2.1 3.8-4.7 3.8-5.8 0-1.1-0.9-3.2-1.9-4.7-1.1-1.6-4.5-7.3-7.7-12.8-3.1-5.5-8.2-14.5-11.2-20-3-5.5-10.7-19-17-30-6.3-11-12.5-21.8-13.7-24-1.2-2.2-3.6-6.5-5.4-9.5-1.7-3-5.5-9.7-8.4-14.9-2.8-5.2-5.9-9.9-6.8-10.5-0.9-0.6-4.4-1-7.8-0.8-3.9 0.1-7.2-0.3-9.1-1.3-1.8-0.9-5.8-1.5-9.7-1.5-3.8 0-8.1 0.5-9.8 1.2-1.6 0.7-6.1 3.1-10 5.3-6.4 3.7-7.6 4-14.3 4h-7.4c-5.6-6.4-8-8.5-8.8-8.8-0.8-0.3-2.7 0.1-4.2 0.9l-2.8 1.4c-0.1-9.7-0.1-29.4-0.2-50 0-20.6 0.3-38.5 0.6-39.7 0.3-1.3 1.1-2.3 1.6-2.3 0.6 0 1.9-0.9 3-2 1.1-1.1 2-3.3 2-5 0-1.7-1.1-4.3-2.5-6l-2.5-3c3.1-3.1 3.7-4.6 3.4-5.2-0.3-0.7 0.2-2 1.1-2.8 0.9-0.8 1.6-2.6 1.6-4 0-1.4-0.7-3.1-1.6-3.7-0.8-0.8-2.5-1-3.7-0.6-1.3 0.3-4.3 2.5-6.8 4.7-2.5 2.3-6.5 5.5-9 7.1-2.4 1.7-8 6.5-12.5 10.9-5.2 5.1-9.4 8.3-12 9.2-2.2 0.7-5.3 2.6-6.8 4.1-1.5 1.5-2.8 3.1-2.7 3.6 0 0.4-1.9 1.5-4.2 2.5-2.4 1-6.4 2.4-9 3-3.1 0.8-15.3 1.2-34.3 1.2h-29.5c0.5-13.6 0.3-14.3-2-16.1-1.4-1-3.1-2.3-3.7-2.9-0.8-0.6-1.1-2.2-0.8-4 0.3-1.6-0.1-4.2-0.9-5.7-0.8-1.6-1.7-4-2-5.5-0.4-2-1.6-3.2-4.1-4.3-1.9-0.8-3.7-2-4-2.5-0.3-0.5-2.6-1-5.2-1-2.7 0-6.8-0.7-9.3-1.6-2.5-0.8-6.9-2.2-9.7-3-2.9-0.8-8.8-1.4-13-1.4h-7.8l-9.4-9.5c7.2-8.3 9-11.4 9.4-14 0.4-2.2 0.5-5.2 0.1-6.7-0.3-1.6-3.5-5.9-7.1-9.8-3.6-3.8-7.4-8.9-8.4-11.2-1.1-2.4-2.5-4.8-3.3-5.5-0.7-0.7-2.8-1.6-4.7-2-1.9-0.4-4.3-1.9-5.3-3.3-1.2-1.6-1.9-4.1-1.8-6.7 0-4-0.4-4.6-5.2-8.4-2.9-2.3-6.5-4.8-8-5.5-1.8-0.9-2.8-2.2-2.8-3.6 0-1.3-0.9-3.8-2-5.5-1.1-1.8-2-4.8-2-6.5-0.1-1.9-1.5-5.7-3.3-8.8-2.4-4-4.4-6-7.5-7.5-2.3-1.1-4.2-2.6-4.2-3.2 0-0.7 1-1.4 2.2-1.5 1.4-0.2 2.8-1.5 3.7-3.3 0.9-2.1 1.1-3.8 0.5-5.5-0.6-1.6-2.7-3.4-6.2-5-3.3-1.6-7.4-4.8-11-8.7-5.1-5.6-5.5-6.4-4.2-7.8 0.9-0.9 1.5-3.4 1.5-6 0-3.3 0.4-4.5 1.5-4.5 0.8 0 3.5-0.7 6-1.5 2.5-0.8 5.7-1.7 7.3-2 1.5-0.3 3.1-1.5 3.6-2.7 0.7-1.5 0.6-3.5-0.2-5.8-0.6-1.9-2.2-5.1-3.6-7-1.9-2.8-2.3-4.2-1.7-7 0.5-1.9 1.1-5.6 1.4-8.1 0.6-4.1 1.5-5.5 6.7-10.4 3.3-3.2 7.4-6.4 9-7.3 1.7-0.8 5.9-3.8 9.5-6.6 5.4-4.2 7.3-5.1 11.5-5.4 2.8-0.3 6.2-1.3 7.8-2.3 1.5-1.1 3.6-3.7 4.7-5.9 1.1-2.2 2-5.3 2-7 0-1.6-0.9-6.4-2-10.5-1.1-4.1-3-8.8-4.2-10.5-2.3-3-2.3-3-0.4-7.2 1-2.4 2.3-5.7 3-7.4 0.6-1.8 3-5.4 5.3-8 2.3-2.7 5.5-6.9 7.2-9.4 1.6-2.5 3.2-5.6 3.6-7 0.4-1.6 1.2-2.4 2.3-2.2 1.2 0.3 2.4-1.1 4.1-4.5 1.8-3.6 2.3-6 2-9.4-0.2-2.7-1.2-5.4-2.2-6.5-1.7-1.7-1.8-2.4-0.5-7.8l1.3-6c7 6.6 9.5 8.5 10 8.5 0.5 0 1.8-0.9 2.8-2.1 1.6-1.9 1.6-2.1-1.2-5.7-1.5-2.1-3.6-4.5-4.5-5.3-0.9-0.8-1.7-1.8-1.6-2.2 0-0.5 1.2-1.1 2.8-1.4 1.5-0.4 4.4-0.7 6.4-0.8 2.5-0.1 4.5 0.6 6.2 2.2l2.6 2.2 5-5c-3.1-3.5-4-4.9-4-5.5 0-0.5 1.4-1.8 3.2-2.8 1.8-0.9 5.2-3.3 7.6-5.2 2.3-1.9 5.2-3.5 6.5-3.5 1.2 0 4.1-1.3 6.5-3 2.3-1.6 4.4-3.8 4.7-4.7 0.2-1 2.1-2.8 4.2-4 2.1-1.2 5-3.6 6.6-5.3 1.5-1.6 3.6-3 4.7-3 1.1 0 3.7-1.6 5.8-3.5 2-1.9 4.7-3.4 6-3.5 1.2 0 3-0.4 4-0.9 1-0.6 4-0.7 7.2-0.2 3.6 0.5 7.1 0.4 10-0.4 2.5-0.7 5.6-1.8 7-2.5 1.6-0.8 4.5-1.1 8-0.7 5.1 0.5 5.7 0.3 8.5-2.5 2.7-2.7 3.2-2.9 5.2-1.6 1.9 1.1 2.5 1.1 4-0.4 1.5-1.4 3.3-1.6 10.6-1.2l8.7 0.4c7.2-9.7 9.8-13.5 10.4-14.8 0.9-1.8 1.9-2.3 5.6-2.3 2.9 0 5.1-0.6 6.3-1.7 1.7-1.6 1.8-1.6 1.7 0.1 0 0.9 0.8 2.1 1.8 2.6 1.1 0.7 2.5 0.6 4.2-0.4 1.9-1 2.8-1 3.8-0.2 0.9 0.9 2 0.8 4.5-0.6 2.5-1.5 3.7-1.7 5.5-0.8 1.2 0.6 2.9 0.9 3.7 0.6 1.1-0.4 1.5 0.3 1.5 3 0 2.6 0.7 4.1 2.8 5.8 1.5 1.2 4.2 2.9 5.9 3.7 3 1.4 3.4 1.3 5-0.2 1.7-1.7 1.9-1.7 4.3 0.7 1.4 1.4 3.1 2.5 3.8 2.5 0.6 0 2.6-0.7 4.2-1.5 1.7-0.8 3.7-3 4.5-5 1.2-2.7 1.3-4.1 0.4-6.2-0.6-1.6-2.1-4.3-3.5-6-1.3-1.8-4.5-4.4-7.1-5.7-2.7-1.3-5.3-3-5.9-3.7-0.6-0.8-1.6-3.3-2.2-5.6-0.7-2.4-2.4-5.7-3.9-7.4-1.6-1.8-4-3.8-5.5-4.5-1.6-0.8-3.6-1.4-4.5-1.4-1-0.1-2.9 0.8-4.3 1.8-1.4 1.1-3.5 2.2-4.7 2.6-1.5 0.4-4.6-0.4-8.8-2.4-3.6-1.6-7-3-7.5-3-0.5 0-1-0.4-1-1 0-0.5 2.6-4.9 5.8-9.8 3.1-4.8 7.7-12 10.2-16.1 2.5-4 8.8-13.9 14.1-21.9 5.2-8.1 12.3-19 15.8-24.2 5.9-9.1 6.2-9.7 5.9-15-0.2-4.2 0.1-5.9 1.5-7.2 0.9-1 1.7-2.1 1.7-2.5 0.1-0.5-1.4-1.5-3.1-2.3-2.9-1.4-3.3-1.3-4.3 0.2-1 1.5-1.4 1.4-4.3-1.3-1.8-1.6-4-2.7-4.8-2.4-0.8 0.3-3.2 0.5-5.2 0.5-3.4-0.1-3.7 0.1-2.3 1.5 1.1 1.1 1.1 1.6 0.3 1.5-0.7 0-2.2-1.1-3.3-2.5-1.2-1.6-3-2.5-4.7-2.5-1.6 0-5.6-1.5-9.1-3.3-5.9-3-6.4-3.1-8-1.5-1.6 1.6-1.9 1.5-4.7-3-2.1-3.3-3.8-4.8-5.5-4.9-1.4-0.2-4.5-2-7-4.1q-4.5-3.8-10-5.1c-5.1-1.2-5.6-1.1-7.5 0.7-1.1 1.1-3.5 2.3-5.2 2.6-2.2 0.4-3.9 1.6-5 3.6-1 1.7-2 3-2.3 3.1-0.3 0-3.4 0.2-7 0.5-3.6 0.2-7.1 1-7.8 1.7-1 1-1.3 0.8-1.2-0.8 0-1.1-1-3.3-2.2-4.9-1.6-1.9-2.9-2.6-4-2.2-1.1 0.3-2.3-0.1-3-1-0.7-0.8-3.8-2.7-6.8-4-3-1.3-6.3-2.2-7.2-1.9-1 0.3-2.4-0.3-3.3-1.2-1.3-1.7-1.6-1.7-5.7 0.6-2.4 1.4-6.4 4.9-9 7.8-4.4 4.9-5.1 5.2-8 4.6-2.8-0.5-3.9-0.1-7 2.5-2.1 1.8-5.5 3.6-7.5 4.1-2.1 0.5-6.4 1.5-9.5 2.2-5.2 1.3-5.9 1.2-7.5-0.3-1-1-4-2.1-6.8-2.6-2.7-0.4-6.1-1.6-7.5-2.5-1.4-0.9-3.2-1.7-4-1.7-0.8 0-2.5 1-3.8 2.3-1.8 1.8-2.5 2-3.5 0.9-0.6-0.7-2.3-1.2-3.7-1.2-1.4 0-4.2 0.9-6.2 2-2.1 1.1-4.4 2-5 2-0.7 0.1-2-1.3-2.8-3.1-0.8-1.7-2.5-3.7-3.7-4.5-1.5-0.9-3.8-1.2-6.3-0.9-3.3 0.4-4.2 0.1-5.5-1.7-0.8-1.3-1.5-3.3-1.5-4.5 0-1.3 0.5-2.5 1-2.8 0.5-0.3 1.9-2 2.9-3.7 1.6-2.7 1.7-3.8 0.9-6.3-0.6-1.6-1.5-3.4-2-4-0.4-0.5-0.8-2.7-0.8-4.7 0-2.1-0.7-5-1.5-6.5-0.8-1.6-1.2-3.1-1-3.5 0.3-0.5-0.1-1.8-0.9-3-0.8-1.3-2.6-2.9-4-3.5-1.4-0.7-2.8-1-3-0.5-0.2 0.4-1.9 1.1-3.7 1.5-2.7 0.6-4.4 0.2-8.8-2-3-1.5-5.6-3.5-5.9-4.3-0.3-0.8 0.3-3 1.2-4.7 0.9-1.8 1.6-4.5 1.6-6 0-1.6-0.9-4.3-2-6-1.1-1.8-2.5-3.3-3-3.3-0.5 0-1.2-1.5-1.5-3.2-0.3-2.1-2.2-5.1-5-8-2.5-2.7-5.1-4.8-5.7-4.8-0.7 0-2.3-1-3.6-2.3-2.1-2.1-2.4-2.1-5-0.6-1.5 0.9-3.3 1.5-3.9 1.3-0.7-0.2-2.4-2.2-3.8-4.4-1.4-2.2-3.1-4-3.7-4-0.7 0.1-2-0.6-2.8-1.5-0.8-0.9-2.3-1.6-3.2-1.5-1 0-2-0.8-2.2-1.7-0.3-1-1.2-2.4-2-3-1-0.8-2.3-1-3.3-0.5-1.2 0.6-3.6 0.3-6.8-0.8-3.6-1.2-5.5-2.6-6.7-4.9-1.3-2.3-1.5-3.6-0.8-5.1 0.6-1.2 0.6-2.7 0.1-3.7-0.5-1-2-2.6-3.5-3.5-2-1.4-2.6-2.6-2.6-5.3 0-1.9-0.7-4.7-1.5-6.2-0.8-1.6-1.9-4-2.5-5.5-0.6-1.7-3.4-4.4-7-6.8-3.3-2.2-7-5.4-8.2-7-1.7-2.2-3.6-3.3-7.3-4-4.3-0.9-5-1.4-4.7-3.3 0.2-1.2-0.7-3.8-2-5.7-1.3-1.9-3.3-3.6-4.3-3.8-1.1-0.2-2.8 0.5-3.8 1.5-1.5 1.5-2.1 1.6-4 0.5-1.2-0.7-3.8-2.3-5.7-3.6-1.9-1.4-4.8-3.8-6.5-5.4-1.6-1.6-4-3.5-5.2-4.1-1.3-0.6-3.4-1.1-4.7-1.1-1.4 0-3.3 1-4.3 2.4z"/></svg>