<svg version="1.2" xmlns="http://www.w3.org/2000/svg" viewBox="0 0 1200 1500" width="1200" height="1500"><style>.a{fill:#fff}</style><path class="a" d="m368.5 231.1c-4.4 1.7-12.5 4.5-18 6.4-5.5 1.9-15.2 5.2-21.5 7.5-6.3 2.3-12.9 4.5-14.5 5-1.6 0.5-5.3 3.3-8 6.3-2.8 3-7.6 8.5-10.8 12.3-3.1 3.8-7.1 8.6-8.7 10.7-3 3.7-3 3.7-1.3 6.7 1.4 2.3 1.5 3.2 0.6 4.2-0.7 0.8-1.9 1-2.8 0.6-0.8-0.5-1.3-1.1-1-1.5 0.3-0.5-0.6-2-2-3.5-1.4-1.6-3.5-2.8-4.8-2.8-1.3 0-2.8 0.6-3.5 1.3-0.7 0.6-1.2 2.9-1.2 5 0 2-0.5 4.7-1.2 6-0.6 1.2-1.6 4-2.1 6.2-0.5 2.2-1 6.3-1.1 9.2-0.1 4.2-0.6 5.6-2.9 7.7-1.5 1.4-3 4.2-3.5 6.2-0.4 2-1.6 4.1-2.7 4.8-1.3 0.8-2.3 3-2.9 6.2-0.5 2.7-1.9 7.3-3.2 10.2-1.3 2.8-2.4 5.8-2.4 6.5 0 0.6-0.7 1.9-1.6 2.7-0.8 0.8-1.5 2.9-1.6 4.5 0 1.6 0.6 4.4 1.3 6.2 1.1 2.5 1.2 3.6 0.2 5.5-0.7 1.3-1.3 3.2-1.5 4.3-0.2 1.4-2.7 3.2-7.8 5.7-4.1 2-8.5 5-9.8 6.5-2 2.4-2.2 3.6-1.8 8.1 0.5 4.5 0.4 5.2-1.1 5.2-1-0.1-2.5 0.7-3.4 1.7-0.9 1-2.2 3.4-2.9 5.3-1.1 3.3 0 7.3 24.5 82 17.5 53.3 33.6 100 50.1 145.3l24.4 66.7 82.3 114.5 95.9 247 37.9 130 67.4 100.5c10.1 3.5 13.6 5 14.2 5.7 0.7 0.7 1.3 2 1.3 2.8 0 0.8 1 2 2.2 2.7 1.3 0.6 5.2 3.5 8.8 6.3 3.6 2.9 8.1 5.7 10 6.4 1.9 0.7 4.2 1.9 5 2.7 0.8 0.8 3.3 1.6 5.5 1.8 2.2 0.2 5.4 1 7 1.9 1.6 0.8 4.6 1.8 6.5 2.2 1.9 0.5 4.6 1.4 6 2.2 1.4 0.7 3.1 1.3 3.7 1.3 0.7 0 2.1 1.2 3 2.6 1 1.5 3 3.3 4.5 4 1.6 0.8 3.7 1.4 4.8 1.4 1.1 0 5 1.8 8.7 4 3.8 2.2 7.6 4 8.5 4 1 0 2 0.5 2.3 1 0.3 0.5 1.3 1 2.2 1 1 0 3.8 1.4 6.2 3.2 2.4 1.8 5.1 3.9 6 4.5 0.9 0.7 4.5 1.5 8.1 1.8 3.6 0.4 8.5 1.3 11 2.2 2.5 0.9 6.7 2.9 9.5 4.4 2.7 1.5 5.7 3.6 6.6 4.6 0.9 1 2.3 3.1 3 4.7 0.8 1.6 2.3 3.4 3.4 4 1.1 0.6 3.7 2.2 5.9 3.6 2.1 1.4 4.5 3.7 5.2 5.2 1.1 2.2 2.1 2.8 4.6 2.8 2 0 5 1.1 7.5 2.7 2.3 1.6 5.2 4.1 6.5 5.7 1.3 1.6 3.2 3.3 4.3 3.9 1.1 0.5 5.1 1.9 9 2.9 3.9 1.1 8.4 2.8 10 3.8 1.6 1.1 3.8 2 4.7 2 1 0 3.9 2.4 6.4 5.2 2.5 2.9 5 6.9 5.5 8.8 0.5 1.9 1.1 7.1 1.2 11.5 0.3 5.7 0.8 8.2 1.8 8.6 0.8 0.3 3.6 1.7 6.2 3 2.6 1.3 6.7 4.1 9 6.2 2.3 2.1 7.3 5.4 11.2 7.2 5.1 2.4 7.6 4.3 9.2 6.9 1.3 2 3.4 4.2 4.7 4.8 1.3 0.7 5.6 4.1 9.5 7.5 3.9 3.5 9 7.2 11.3 8.2 2.4 1.1 6.2 3.7 8.4 5.8l4.2 3.8c20.4-0.2 23.6-0.6 27.2-2.3 2.5-1.1 5.6-2.3 7-2.5 1.4-0.3 5-3.4 8.1-6.9 3.1-3.5 6.8-8.3 8.3-10.8 1.4-2.5 2.6-6.1 2.6-8 0-1.9-1.3-7.1-2.8-11.5-1.6-4.8-2.5-9-2.2-10.5 0.5-2.2 1.2-2.6 6.5-3 3.3-0.3 6.6-1 7.4-1.5 0.7-0.6 1.1-1.7 0.8-2.5-0.2-0.8-40.1-72.2-88.5-158.5l-88.1-157c-146.9-203.7-189.9-263.3-190.3-263.9-0.3-0.6-26.6-86.8-58.3-191.6l-57.6-190.5c-82.3-189.9-106.9-245.7-107.8-246.7-1.5-1.5-2.2-1.4-9.6 1.3z"/></svg>